<svg width="1920" height="1080" viewBox="0 0 1920 1080" fill="none" xmlns="http://www.w3.org/2000/svg">
<rect width="1920" height="1080" fill="#071A2F"/>
<rect y="620" width="1920" height="460" fill="#0E2742"/>
<rect x="120" y="120" width="1680" height="820" rx="24" fill="#0D2238" stroke="#FDB022" stroke-width="4" stroke-dasharray="20 14"/>
<rect x="180" y="180" width="1560" height="700" rx="24" fill="#102C49" stroke="#F8FAFC" stroke-opacity="0.22" stroke-width="2" stroke-dasharray="14 10"/>
<circle cx="1510" cy="220" r="110" fill="#FDB022" fill-opacity="0.18"/>
<circle cx="300" cy="280" r="160" fill="#3B82F6" fill-opacity="0.12"/>
<path d="M130 780C230 700 310 620 400 560C520 480 590 420 690 430C820 444 860 570 960 570C1080 570 1120 420 1280 420C1400 420 1480 500 1600 570C1700 630 1770 700 1810 760V1080H130V780Z" fill="url(#paint0_linear_507_7)"/>
<rect x="230" y="350" width="180" height="350" rx="18" fill="#1E3A5F"/>
<rect x="260" y="320" width="130" height="380" rx="16" fill="#274B77"/>
<rect x="450" y="290" width="230" height="430" rx="18" fill="#1E3A5F"/>
<rect x="490" y="250" width="150" height="470" rx="16" fill="#335C8D"/>
<rect x="710" y="240" width="210" height="490" rx="18" fill="#1E3A5F"/>
<rect x="750" y="200" width="130" height="530" rx="16" fill="#3A6797"/>
<rect x="980" y="280" width="250" height="460" rx="18" fill="#1E3A5F"/>
<rect x="1025" y="240" width="160" height="500" rx="16" fill="#274B77"/>
<rect x="1265" y="320" width="180" height="400" rx="18" fill="#1E3A5F"/>
<rect x="1300" y="280" width="110" height="440" rx="16" fill="#335C8D"/>
<rect x="260" y="350" width="20" height="350" fill="#FDB022" fill-opacity="0.2"/>
<rect x="490" y="280" width="20" height="440" fill="#FDB022" fill-opacity="0.2"/>
<rect x="750" y="220" width="20" height="510" fill="#FDB022" fill-opacity="0.2"/>
<rect x="1025" y="260" width="20" height="480" fill="#FDB022" fill-opacity="0.2"/>
<rect x="1300" y="300" width="20" height="420" fill="#FDB022" fill-opacity="0.2"/>
<text x="960" y="122" fill="#FBBF24" font-family="Arial, sans-serif" font-size="34" font-weight="700" text-anchor="middle">DESKTOP / TABLET BANNER</text>
<text x="960" y="160" fill="#E2E8F0" font-family="Arial, sans-serif" font-size="24" text-anchor="middle">Canvas: 1920 × 1080 · Ratio: 16:9</text>
<text x="960" y="210" fill="#FFFFFF" font-family="Arial, sans-serif" font-size="82" font-weight="700" text-anchor="middle">KEEP ALL CRITICAL CONTENT HERE</text>
<text x="960" y="275" fill="#CBD5E1" font-family="Arial, sans-serif" font-size="34" text-anchor="middle">Safe zone avoids navbar overlap on top and search overlap at bottom</text>
<text x="960" y="840" fill="#FFFFFF" font-family="Arial, sans-serif" font-size="30" font-weight="700" text-anchor="middle">BOTTOM SAFE LIMIT</text>
<text x="250" y="950" fill="#94A3B8" font-family="Arial, sans-serif" font-size="28">Top unsafe area: 120px</text>
<text x="250" y="990" fill="#94A3B8" font-family="Arial, sans-serif" font-size="28">Bottom unsafe area: 140px</text>
<text x="250" y="1030" fill="#94A3B8" font-family="Arial, sans-serif" font-size="28">Left / right padding: 100px</text>
<text x="1470" y="950" fill="#F8FAFC" font-family="Arial, sans-serif" font-size="48" font-weight="700" text-anchor="middle">PROJECT NAME</text>
<text x="1470" y="1010" fill="#CBD5E1" font-family="Arial, sans-serif" font-size="28" text-anchor="middle">Headline · Subheadline · CTA · Logo</text>
<defs>
<linearGradient id="paint0_linear_507_7" x1="970" y1="420" x2="970" y2="1080" gradientUnits="userSpaceOnUse">
<stop stop-color="#173657"/>
<stop offset="1" stop-color="#08121E"/>
</linearGradient>
</defs>
</svg>
